<svg width="60" height="60" viewBox="0 0 60 60" fill="none" xmlns="http://www.w3.org/2000/svg">
<path fill-rule="evenodd" clip-rule="evenodd" d="M7.17786 32.1778L33.9022 5.45345L56.8088 28.36L30.0845 55.0844L7.17786 32.1778ZM49.9368 16.9067C51.2019 15.6416 51.2019 13.5905 49.9368 12.3254C48.6717 11.0603 46.6206 11.0603 45.3555 12.3254C44.0904 13.5905 44.0904 15.6416 45.3555 16.9067L33.9022 5.45337L56.8088 5.45337L56.8088 28.36L45.3555 16.9067C46.6206 18.1718 48.6717 18.1718 49.9368 16.9067Z" fill="#DECCBC"/>
<path fill-rule="evenodd" clip-rule="evenodd" d="M20.0003 17H15.2003V22.6002H14.4001V22.6002H12.8C7.93989 22.6002 4 26.5401 4 31.4002C4 35.9906 7.51474 39.7601 11.9999 40.1643V40.2001H12.7574L12.8 40.2002H15.2003V45H7.20033V51.4H11.9999V51.4001H15.2003V57H20.0003V51.4001H22.0396C26.8997 51.4001 30.8396 47.4602 30.8396 42.6001C30.8396 37.8608 27.0931 33.9965 22.4001 33.8074V33.8002H22.0821L22.0396 33.8001H20.0003V29.0002H22.4001V29.0002H28.0001V22.6002H20.0003V17ZM15.2003 29.0002H12.8C11.4745 29.0002 10.4 30.0747 10.4 31.4002C10.4 32.7183 11.4626 33.7882 12.7778 33.8001H15.2003V29.0002ZM20.0003 40.2002V45H20.8003V45.0001H22.0396C23.3651 45.0001 24.4396 43.9256 24.4396 42.6001C24.4396 41.2821 23.3771 40.2122 22.0619 40.2002H20.0003Z" fill="#007B93"/>
</svg>
