<svg width="24" height="24" viewBox="0 0 24 24" fill="none" xmlns="http://www.w3.org/2000/svg">
<path fill-rule="evenodd" clip-rule="evenodd" d="M2.70714 7L7.70714 2H21.2929L16.2929 7H2.70714ZM17 7.70714V22.5C17 22.7761 16.7761 23 16.5 23H1.5C1.22386 23 1 22.7761 1 22.5V7.5C1 7.36007 1.05748 7.23357 1.15012 7.14281L7.14282 1.15011C7.23357 1.05748 7.36007 1 7.5 1H22.5C22.7761 1 23 1.22386 23 1.5V16.5C23 16.7761 22.7761 17 22.5 17C22.2239 17 22 16.7761 22 16.5V2.70714L17 7.70714ZM16 8V22H2V8H16Z" fill="#DECCBC"/>
<path fill-rule="evenodd" clip-rule="evenodd" d="M23 16.7072L16.7072 23H19.5C19.7761 23 20 23.2239 20 23.5C20 23.7761 19.7761 24 19.5 24H15.5C15.2239 24 15 23.7761 15 23.5V19.5C15 19.2239 15.2239 19 15.5 19C15.7761 19 16 19.2239 16 19.5V22.293L22.293 16H19.5C19.2239 16 19 15.7761 19 15.5C19 15.2239 19.2239 15 19.5 15H23.5C23.7761 15 24 15.2239 24 15.5V19.5C24 19.7761 23.7761 20 23.5 20C23.2239 20 23 19.7761 23 19.5V16.7072Z" fill="#007B93"/>
</svg>
