<svg width="24" height="24" viewBox="0 0 24 24" fill="none" xmlns="http://www.w3.org/2000/svg">
<g clip-path="url(#clip0)">
<path fill-rule="evenodd" clip-rule="evenodd" d="M7.14282 1.15011C7.23357 1.05748 7.36007 1 7.5 1H22.5C22.7761 1 23 1.22386 23 1.5V16.5C23 16.6381 22.944 16.7631 22.8536 16.8535L22.8536 16.8536L16.8536 22.8536L16.8536 22.8535C16.7631 22.944 16.6381 23 16.5 23H1.5C1.22386 23 1 22.7761 1 22.5V7.5C1 7.36007 1.05748 7.23357 1.15012 7.14281L7.14282 1.15011ZM16.2929 22L22 16.2929V2.70714L16.8536 7.85355L16.8536 7.85353C16.7631 7.94403 16.6381 8 16.5 8H2V22H16.2929ZM7.70714 2H21.2929L16.2929 7H2.70714L7.70714 2Z" fill="#DECCBC"/>
<path fill-rule="evenodd" clip-rule="evenodd" d="M15.9998 7.89233L14.0108 9.88135C13.8155 10.0766 13.4989 10.0766 13.3037 9.88135C13.1084 9.68609 13.1084 9.3695 13.3037 9.17424L16.1225 6.35538L16.1318 6.34587C16.2058 6.27185 16.2973 6.22589 16.393 6.20799C16.5497 6.17856 16.7179 6.2245 16.8392 6.34581L16.8504 6.35739L19.6673 9.1743C19.8626 9.36956 19.8626 9.68614 19.6673 9.88141C19.4721 10.0767 19.1555 10.0767 18.9602 9.88141L16.9998 7.92098L16.9998 21.2983L18.9598 19.3382C19.1551 19.1429 19.4717 19.1429 19.667 19.3382C19.8622 19.5335 19.8622 19.85 19.667 20.0453L16.8452 22.867L16.8388 22.8735C16.8106 22.9018 16.7798 22.926 16.7471 22.9461C16.5544 23.0649 16.2985 23.0408 16.1314 22.8737C16.127 22.8693 16.1226 22.8648 16.1184 22.8602L13.3033 20.0451C13.108 19.8499 13.108 19.5333 13.3033 19.338C13.4986 19.1427 13.8151 19.1427 14.0104 19.338L15.9998 21.3274L15.9998 7.89233Z" fill="#007B93"/>
</g>
<defs>
<clipPath id="clip0">
<rect width="24" height="24" fill="white"/>
</clipPath>
</defs>
</svg>
