<svg width="60" height="60" viewBox="0 0 60 60" fill="none" xmlns="http://www.w3.org/2000/svg">
<path d="M32 52C44.1503 52 54 42.1503 54 30C54 17.8497 44.1503 8 32 8C19.8497 8 10 17.8497 10 30C10 42.1503 19.8497 52 32 52Z" fill="#DECCBC"/>
<path fill-rule="evenodd" clip-rule="evenodd" d="M16 21H8V39H2L12 48L22 39H16V21Z" fill="#007B93"/>
<path fill-rule="evenodd" clip-rule="evenodd" d="M33.6002 18H30.7202V21.3599H30.24V21.3602H29.28C26.3639 21.3602 24 23.7241 24 26.6402C24 29.3945 26.1089 31.6562 28.8 31.8987V31.92H29.2414L29.28 31.9202H30.7202V34.7997H25.9202V38.6397H28.8V38.64H30.7202V42H33.6002V38.64H34.8238C37.7398 38.64 40.1038 36.2761 40.1038 33.36C40.1038 30.5164 37.8558 28.1978 35.0401 28.0844V28.0802H34.8624L34.8238 28.08H33.6002V25.2002H35.0401V25.1999H38.4V21.3599H33.6002V18ZM30.7202 25.2002H29.28C28.4847 25.2002 27.84 25.8449 27.84 26.6402C27.84 27.4287 28.4738 28.0693 29.2598 28.08H30.7202V25.2002ZM33.6002 31.9202V34.7997H34.0802V34.8H34.8238C35.6191 34.8 36.2638 34.1553 36.2638 33.36C36.2638 32.5715 35.6299 31.931 34.8439 31.9202H33.6002Z" fill="#007B93"/>
</svg>
