<svg width="60" height="60" viewBox="0 0 60 60" fill="none" xmlns="http://www.w3.org/2000/svg">
<path d="M39.1193 15H2V41.6757H39.1193V15Z" fill="#DECCBC"/>
<path d="M58.7259 28.7844V41.676H41.541V19.595H52.0087L58.7259 28.7844Z" fill="#DECCBC"/>
<path d="M53.9862 22.2969H45.8701V28.7849H58.7256L53.9862 22.2969Z" fill="#ECE5DE"/>
<path d="M13.0103 45.6791C15.2349 45.6791 17.0382 43.8757 17.0382 41.6512C17.0382 39.4266 15.2349 37.6233 13.0103 37.6233C10.7858 37.6233 8.98242 39.4266 8.98242 41.6512C8.98242 43.8757 10.7858 45.6791 13.0103 45.6791Z" fill="#007B93"/>
<path d="M48.8521 45.6791C51.0767 45.6791 52.88 43.8757 52.88 41.6512C52.88 39.4266 51.0767 37.6233 48.8521 37.6233C46.6276 37.6233 44.8242 39.4266 44.8242 41.6512C44.8242 43.8757 46.6276 45.6791 48.8521 45.6791Z" fill="#007B93"/>
</svg>
