<svg width="24" height="24" viewBox="0 0 24 24" fill="none" xmlns="http://www.w3.org/2000/svg">
<g clip-path="url(#clip0)">
<path fill-rule="evenodd" clip-rule="evenodd" d="M7.70714 2L2 7.70714V22H16V7.5C16 7.36007 16.0575 7.23357 16.1501 7.14282L21.2929 2H7.70714ZM17 21.2929V7.70714L22 2.70714V16.2929L17 21.2929ZM16.8536 22.8535C16.7631 22.944 16.6381 23 16.5 23H1.5C1.22386 23 1 22.7761 1 22.5V7.5C1 7.36007 1.05748 7.23357 1.15012 7.14281L7.14282 1.15011C7.23357 1.05748 7.36007 1 7.5 1H22.5C22.7761 1 23 1.22386 23 1.5V16.5C23 16.6381 22.944 16.7631 22.8536 16.8535L22.8536 16.8536L16.8536 22.8536L16.8536 22.8535Z" fill="#DECCBC"/>
<path fill-rule="evenodd" clip-rule="evenodd" d="M16.1375 7.00219L14.1485 5.01319C13.9533 4.81793 13.9533 4.50134 14.1485 4.30608C14.3438 4.11082 14.6604 4.11082 14.8556 4.30608L17.6745 7.12495L17.684 7.13421C17.758 7.20823 17.804 7.29969 17.8219 7.39537C17.8513 7.55215 17.8054 7.7203 17.6841 7.84161L17.6725 7.85283L14.8556 10.6697C14.6603 10.865 14.3437 10.865 14.1485 10.6697C13.9532 10.4745 13.9532 10.1579 14.1485 9.96263L16.1089 8.00219L2.7317 8.00218L4.69176 9.96224C4.88702 10.1575 4.88702 10.4741 4.69176 10.6693C4.4965 10.8646 4.17991 10.8646 3.98465 10.6693L1.16294 7.84763L1.15641 7.84122C1.12815 7.81296 1.10397 7.78215 1.08389 7.74954C0.965028 7.55682 0.98914 7.3009 1.15622 7.13381C1.16066 7.12937 1.16517 7.12504 1.16973 7.1208L3.98484 4.30569C4.1801 4.11043 4.49668 4.11043 4.69194 4.30569C4.88721 4.50095 4.88721 4.81753 4.69194 5.0128L2.70256 7.00218L16.1375 7.00219Z" fill="#007B93"/>
</g>
<defs>
<clipPath id="clip0">
<rect width="24" height="24" fill="white"/>
</clipPath>
</defs>
</svg>
